<svg width="1432" height="1354" viewBox="0 0 1432 1354" fill="none" xmlns="http://www.w3.org/2000/svg">
<line x1="0.500061" y1="1" x2="0.500018" y2="977.372" stroke="white" stroke-opacity="0.02"/>
<line x1="33.5001" y1="1" x2="33.5" y2="977.372" stroke="white" stroke-opacity="0.02"/>
<line x1="66.5001" y1="1" x2="66.5" y2="977.372" stroke="white" stroke-opacity="0.02"/>
<line x1="99.5001" y1="1" x2="99.5" y2="977.372" stroke="white" stroke-opacity="0.02"/>
<line x1="132.5" y1="1" x2="132.5" y2="977.372" stroke="white" stroke-opacity="0.02"/>
<line x1="165.5" y1="1" x2="165.5" y2="977.372" stroke="white" stroke-opacity="0.02"/>
<line x1="198.5" y1="1" x2="198.5" y2="977.372" stroke="white" stroke-opacity="0.02"/>
<line x1="231.5" y1="1" x2="231.5" y2="977.372" stroke="white" stroke-opacity="0.02"/>
<line x1="264.5" y1="1" x2="264.5" y2="977.372" stroke="white" stroke-opacity="0.02"/>
<line x1="297.5" y1="1" x2="297.5" y2="977.372" stroke="white" stroke-opacity="0.02"/>
<line x1="330.5" y1="1" x2="330.5" y2="977.372" stroke="white" stroke-opacity="0.02"/>
<line x1="363.5" y1="1" x2="363.5" y2="977.372" stroke="white" stroke-opacity="0.02"/>
<line x1="396.5" y1="1" x2="396.5" y2="977.372" stroke="white" stroke-opacity="0.02"/>
<line x1="429.5" y1="1" x2="429.5" y2="977.372" stroke="white" stroke-opacity="0.02"/>
<line x1="462.5" y1="1" x2="462.5" y2="977.372" stroke="white" stroke-opacity="0.02"/>
<line x1="495.5" y1="1" x2="495.5" y2="977.372" stroke="white" stroke-opacity="0.02"/>
<line x1="528.5" y1="1" x2="528.5" y2="977.372" stroke="white" stroke-opacity="0.02"/>
<line x1="561.5" y1="1" x2="561.5" y2="977.372" stroke="white" stroke-opacity="0.02"/>
<line x1="594.5" y1="1" x2="594.5" y2="977.372" stroke="white" stroke-opacity="0.02"/>
<line x1="627.5" y1="1" x2="627.5" y2="977.372" stroke="white" stroke-opacity="0.02"/>
<line x1="660.5" y1="1" x2="660.5" y2="977.372" stroke="white" stroke-opacity="0.02"/>
<line x1="693.5" y1="1" x2="693.5" y2="977.372" stroke="white" stroke-opacity="0.02"/>
<line x1="726.5" y1="1" x2="726.5" y2="977.372" stroke="white" stroke-opacity="0.02"/>
<line x1="759.5" y1="1" x2="759.5" y2="977.372" stroke="white" stroke-opacity="0.02"/>
<line x1="792.5" y1="1" x2="792.5" y2="977.372" stroke="white" stroke-opacity="0.02"/>
<line x1="825.5" y1="1" x2="825.5" y2="977.372" stroke="white" stroke-opacity="0.02"/>
<line x1="858.5" y1="1" x2="858.5" y2="977.372" stroke="white" stroke-opacity="0.02"/>
<line x1="891.5" y1="1" x2="891.5" y2="977.372" stroke="white" stroke-opacity="0.02"/>
<line x1="924.5" y1="1" x2="924.5" y2="977.372" stroke="white" stroke-opacity="0.02"/>
<line x1="957.5" y1="1" x2="957.5" y2="977.372" stroke="white" stroke-opacity="0.02"/>
<line x1="990.5" y1="1" x2="990.5" y2="977.372" stroke="white" stroke-opacity="0.02"/>
<line x1="1023.5" y1="1" x2="1023.5" y2="977.372" stroke="white" stroke-opacity="0.02"/>
<line x1="1056.5" y1="1" x2="1056.5" y2="977.372" stroke="white" stroke-opacity="0.02"/>
<line x1="1089.5" y1="1" x2="1089.5" y2="977.372" stroke="white" stroke-opacity="0.02"/>
<line x1="1122.5" y1="1" x2="1122.5" y2="977.372" stroke="white" stroke-opacity="0.02"/>
<line x1="1155.5" y1="1" x2="1155.5" y2="977.372" stroke="white" stroke-opacity="0.02"/>
<line x1="1188.5" y1="1" x2="1188.5" y2="977.372" stroke="white" stroke-opacity="0.02"/>
<line x1="1221.5" y1="1" x2="1221.5" y2="977.372" stroke="white" stroke-opacity="0.02"/>
<line x1="1254.5" y1="1" x2="1254.5" y2="977.372" stroke="white" stroke-opacity="0.02"/>
<line x1="1287.5" y1="1" x2="1287.5" y2="977.372" stroke="white" stroke-opacity="0.02"/>
<line x1="1320.5" y1="1" x2="1320.5" y2="977.372" stroke="white" stroke-opacity="0.02"/>
<line x1="1353.5" y1="1" x2="1353.5" y2="977.372" stroke="white" stroke-opacity="0.02"/>
<line x1="1386.5" y1="1" x2="1386.5" y2="977.372" stroke="white" stroke-opacity="0.02"/>
<line x1="1419.5" y1="1" x2="1419.5" y2="977.372" stroke="white" stroke-opacity="0.02"/>
<line x1="16.0001" y1="1353.5" x2="1440" y2="1353.5" stroke="white" stroke-opacity="0.02"/>
<line x1="16.0001" y1="1322.03" x2="1440" y2="1322.03" stroke="white" stroke-opacity="0.02"/>
<line x1="16.0001" y1="1290.57" x2="1440" y2="1290.57" stroke="white" stroke-opacity="0.02"/>
<line x1="16.0001" y1="1259.1" x2="1440" y2="1259.1" stroke="white" stroke-opacity="0.02"/>
<line x1="16.0001" y1="1227.64" x2="1440" y2="1227.64" stroke="white" stroke-opacity="0.02"/>
<line x1="16.0001" y1="1196.17" x2="1440" y2="1196.17" stroke="white" stroke-opacity="0.02"/>
<line x1="16.0001" y1="1164.71" x2="1440" y2="1164.71" stroke="white" stroke-opacity="0.02"/>
<line x1="16.0001" y1="1133.24" x2="1440" y2="1133.24" stroke="white" stroke-opacity="0.02"/>
<line x1="16.0001" y1="1101.78" x2="1440" y2="1101.78" stroke="white" stroke-opacity="0.02"/>
<line x1="16.0001" y1="1070.31" x2="1440" y2="1070.31" stroke="white" stroke-opacity="0.02"/>
<line x1="16.0001" y1="1038.85" x2="1440" y2="1038.85" stroke="white" stroke-opacity="0.02"/>
<line x1="16.0001" y1="1007.38" x2="1440" y2="1007.38" stroke="white" stroke-opacity="0.02"/>
<line x1="16.0001" y1="975.919" x2="1440" y2="975.919" stroke="white" stroke-opacity="0.02"/>
<line x1="16.0001" y1="944.453" x2="1440" y2="944.453" stroke="white" stroke-opacity="0.02"/>
<line x1="16.0001" y1="912.988" x2="1440" y2="912.988" stroke="white" stroke-opacity="0.02"/>
<line x1="16.0001" y1="881.523" x2="1440" y2="881.523" stroke="white" stroke-opacity="0.02"/>
<line x1="16.0001" y1="850.058" x2="1440" y2="850.058" stroke="white" stroke-opacity="0.02"/>
<line x1="16.0001" y1="818.593" x2="1440" y2="818.593" stroke="white" stroke-opacity="0.02"/>
<line x1="16.0001" y1="787.128" x2="1440" y2="787.128" stroke="white" stroke-opacity="0.02"/>
<line x1="16.0001" y1="755.663" x2="1440" y2="755.663" stroke="white" stroke-opacity="0.02"/>
<line x1="16.0001" y1="724.198" x2="1440" y2="724.198" stroke="white" stroke-opacity="0.02"/>
<line x1="16.0001" y1="692.733" x2="1440" y2="692.733" stroke="white" stroke-opacity="0.02"/>
<line x1="16" y1="661.267" x2="1440" y2="661.267" stroke="white" stroke-opacity="0.02"/>
<line x1="16" y1="629.802" x2="1440" y2="629.802" stroke="white" stroke-opacity="0.02"/>
<line x1="16" y1="598.337" x2="1440" y2="598.337" stroke="white" stroke-opacity="0.02"/>
<line x1="16" y1="566.872" x2="1440" y2="566.872" stroke="white" stroke-opacity="0.02"/>
<line x1="16" y1="535.407" x2="1440" y2="535.407" stroke="white" stroke-opacity="0.02"/>
<line x1="16" y1="503.942" x2="1440" y2="503.942" stroke="white" stroke-opacity="0.02"/>
<line x1="16" y1="472.477" x2="1440" y2="472.477" stroke="white" stroke-opacity="0.02"/>
<line x1="16" y1="441.012" x2="1440" y2="441.012" stroke="white" stroke-opacity="0.02"/>
<line x1="16" y1="409.547" x2="1440" y2="409.547" stroke="white" stroke-opacity="0.02"/>
<line x1="16" y1="378.081" x2="1440" y2="378.081" stroke="white" stroke-opacity="0.02"/>
<line x1="16" y1="346.616" x2="1440" y2="346.616" stroke="white" stroke-opacity="0.02"/>
<line x1="16" y1="315.151" x2="1440" y2="315.151" stroke="white" stroke-opacity="0.02"/>
<line x1="16" y1="283.686" x2="1440" y2="283.686" stroke="white" stroke-opacity="0.02"/>
<line x1="16" y1="252.221" x2="1440" y2="252.221" stroke="white" stroke-opacity="0.02"/>
<line x1="16" y1="220.756" x2="1440" y2="220.756" stroke="white" stroke-opacity="0.02"/>
<line x1="16" y1="189.291" x2="1440" y2="189.291" stroke="white" stroke-opacity="0.02"/>
<line x1="16" y1="157.826" x2="1440" y2="157.826" stroke="white" stroke-opacity="0.02"/>
<line x1="16" y1="126.36" x2="1440" y2="126.36" stroke="white" stroke-opacity="0.02"/>
<line x1="16" y1="94.8954" x2="1440" y2="94.8954" stroke="white" stroke-opacity="0.02"/>
<line x1="16" y1="63.4302" x2="1440" y2="63.4302" stroke="white" stroke-opacity="0.02"/>
<line x1="16" y1="31.9651" x2="1440" y2="31.9651" stroke="white" stroke-opacity="0.02"/>
<line x1="16" y1="0.5" x2="1440" y2="0.5" stroke="white" stroke-opacity="0.02"/>
</svg>
