<svg width="1486" height="1935" viewBox="0 0 1486 1935" fill="none" xmlns="http://www.w3.org/2000/svg">
<line x1="36.4978" y1="2.18557e-08" x2="36.4978" y2="976.372" stroke="white" stroke-opacity="0.02"/>
<line x1="69.4978" y1="2.18557e-08" x2="69.4978" y2="976.372" stroke="white" stroke-opacity="0.02"/>
<line x1="102.498" y1="2.18557e-08" x2="102.498" y2="976.372" stroke="white" stroke-opacity="0.02"/>
<line x1="135.498" y1="2.18557e-08" x2="135.498" y2="976.372" stroke="white" stroke-opacity="0.02"/>
<line x1="168.498" y1="2.18557e-08" x2="168.498" y2="976.372" stroke="white" stroke-opacity="0.02"/>
<line x1="201.498" y1="2.18557e-08" x2="201.498" y2="976.372" stroke="white" stroke-opacity="0.02"/>
<line x1="234.498" y1="2.18557e-08" x2="234.498" y2="976.372" stroke="white" stroke-opacity="0.02"/>
<line x1="267.498" y1="2.18557e-08" x2="267.498" y2="976.372" stroke="white" stroke-opacity="0.02"/>
<line x1="300.498" y1="2.18557e-08" x2="300.498" y2="976.372" stroke="white" stroke-opacity="0.02"/>
<line x1="333.498" y1="2.18557e-08" x2="333.498" y2="976.372" stroke="white" stroke-opacity="0.02"/>
<line x1="366.498" y1="2.18557e-08" x2="366.498" y2="976.372" stroke="white" stroke-opacity="0.02"/>
<line x1="399.498" y1="2.18557e-08" x2="399.498" y2="976.372" stroke="white" stroke-opacity="0.02"/>
<line x1="432.498" y1="2.18557e-08" x2="432.498" y2="976.372" stroke="white" stroke-opacity="0.02"/>
<line x1="465.498" y1="2.18557e-08" x2="465.498" y2="976.372" stroke="white" stroke-opacity="0.02"/>
<line x1="498.498" y1="2.18557e-08" x2="498.498" y2="976.372" stroke="white" stroke-opacity="0.02"/>
<line x1="531.498" y1="2.18557e-08" x2="531.498" y2="976.372" stroke="white" stroke-opacity="0.02"/>
<line x1="564.498" y1="2.18557e-08" x2="564.498" y2="976.372" stroke="white" stroke-opacity="0.02"/>
<line x1="597.498" y1="2.18557e-08" x2="597.498" y2="976.372" stroke="white" stroke-opacity="0.02"/>
<line x1="630.498" y1="2.18557e-08" x2="630.498" y2="976.372" stroke="white" stroke-opacity="0.02"/>
<line x1="663.498" y1="2.18557e-08" x2="663.498" y2="976.372" stroke="white" stroke-opacity="0.02"/>
<line x1="696.498" y1="2.18557e-08" x2="696.498" y2="976.372" stroke="white" stroke-opacity="0.02"/>
<line x1="729.498" y1="2.18557e-08" x2="729.498" y2="976.372" stroke="white" stroke-opacity="0.02"/>
<line x1="762.498" y1="2.18557e-08" x2="762.498" y2="976.372" stroke="white" stroke-opacity="0.02"/>
<line x1="795.498" y1="2.18557e-08" x2="795.498" y2="976.372" stroke="white" stroke-opacity="0.02"/>
<line x1="828.498" y1="2.18557e-08" x2="828.498" y2="976.372" stroke="white" stroke-opacity="0.02"/>
<line x1="861.498" y1="2.18557e-08" x2="861.498" y2="976.372" stroke="white" stroke-opacity="0.02"/>
<line x1="894.498" y1="2.18557e-08" x2="894.498" y2="976.372" stroke="white" stroke-opacity="0.02"/>
<line x1="927.498" y1="2.18557e-08" x2="927.498" y2="976.372" stroke="white" stroke-opacity="0.02"/>
<line x1="960.498" y1="2.18557e-08" x2="960.497" y2="976.372" stroke="white" stroke-opacity="0.02"/>
<line x1="993.498" y1="2.18557e-08" x2="993.497" y2="976.372" stroke="white" stroke-opacity="0.02"/>
<line x1="1026.5" y1="2.18557e-08" x2="1026.5" y2="976.372" stroke="white" stroke-opacity="0.02"/>
<line x1="1059.5" y1="2.18557e-08" x2="1059.5" y2="976.372" stroke="white" stroke-opacity="0.02"/>
<line x1="1092.5" y1="2.18557e-08" x2="1092.5" y2="976.372" stroke="white" stroke-opacity="0.02"/>
<line x1="1125.5" y1="2.18557e-08" x2="1125.5" y2="976.372" stroke="white" stroke-opacity="0.02"/>
<line x1="1158.5" y1="2.18557e-08" x2="1158.5" y2="976.372" stroke="white" stroke-opacity="0.02"/>
<line x1="1191.5" y1="2.18557e-08" x2="1191.5" y2="976.372" stroke="white" stroke-opacity="0.02"/>
<line x1="1224.5" y1="2.18557e-08" x2="1224.5" y2="976.372" stroke="white" stroke-opacity="0.02"/>
<line x1="1257.5" y1="2.18557e-08" x2="1257.5" y2="976.372" stroke="white" stroke-opacity="0.02"/>
<line x1="1290.5" y1="2.18557e-08" x2="1290.5" y2="976.372" stroke="white" stroke-opacity="0.02"/>
<line x1="1323.5" y1="2.18557e-08" x2="1323.5" y2="976.372" stroke="white" stroke-opacity="0.02"/>
<line x1="1356.5" y1="2.18557e-08" x2="1356.5" y2="976.372" stroke="white" stroke-opacity="0.02"/>
<line x1="1389.5" y1="2.18557e-08" x2="1389.5" y2="976.372" stroke="white" stroke-opacity="0.02"/>
<line x1="1422.5" y1="2.18557e-08" x2="1422.5" y2="976.372" stroke="white" stroke-opacity="0.02"/>
<line x1="1455.5" y1="2.18557e-08" x2="1455.5" y2="976.372" stroke="white" stroke-opacity="0.02"/>
<line x1="36.4976" y1="958" x2="36.4975" y2="1934.37" stroke="white" stroke-opacity="0.02"/>
<line x1="69.4976" y1="958" x2="69.4975" y2="1934.37" stroke="white" stroke-opacity="0.02"/>
<line x1="102.498" y1="958" x2="102.498" y2="1934.37" stroke="white" stroke-opacity="0.02"/>
<line x1="135.498" y1="958" x2="135.498" y2="1934.37" stroke="white" stroke-opacity="0.02"/>
<line x1="168.498" y1="958" x2="168.498" y2="1934.37" stroke="white" stroke-opacity="0.02"/>
<line x1="201.498" y1="958" x2="201.498" y2="1934.37" stroke="white" stroke-opacity="0.02"/>
<line x1="234.498" y1="958" x2="234.498" y2="1934.37" stroke="white" stroke-opacity="0.02"/>
<line x1="267.498" y1="958" x2="267.498" y2="1934.37" stroke="white" stroke-opacity="0.02"/>
<line x1="300.498" y1="958" x2="300.498" y2="1934.37" stroke="white" stroke-opacity="0.02"/>
<line x1="333.498" y1="958" x2="333.498" y2="1934.37" stroke="white" stroke-opacity="0.02"/>
<line x1="366.498" y1="958" x2="366.498" y2="1934.37" stroke="white" stroke-opacity="0.02"/>
<line x1="399.498" y1="958" x2="399.498" y2="1934.37" stroke="white" stroke-opacity="0.02"/>
<line x1="432.498" y1="958" x2="432.498" y2="1934.37" stroke="white" stroke-opacity="0.02"/>
<line x1="465.498" y1="958" x2="465.498" y2="1934.37" stroke="white" stroke-opacity="0.02"/>
<line x1="498.498" y1="958" x2="498.498" y2="1934.37" stroke="white" stroke-opacity="0.02"/>
<line x1="531.498" y1="958" x2="531.497" y2="1934.37" stroke="white" stroke-opacity="0.02"/>
<line x1="564.498" y1="958" x2="564.497" y2="1934.37" stroke="white" stroke-opacity="0.02"/>
<line x1="597.498" y1="958" x2="597.497" y2="1934.37" stroke="white" stroke-opacity="0.02"/>
<line x1="630.498" y1="958" x2="630.497" y2="1934.37" stroke="white" stroke-opacity="0.02"/>
<line x1="663.498" y1="958" x2="663.497" y2="1934.37" stroke="white" stroke-opacity="0.02"/>
<line x1="696.498" y1="958" x2="696.497" y2="1934.37" stroke="white" stroke-opacity="0.02"/>
<line x1="729.498" y1="958" x2="729.497" y2="1934.37" stroke="white" stroke-opacity="0.02"/>
<line x1="762.498" y1="958" x2="762.497" y2="1934.37" stroke="white" stroke-opacity="0.02"/>
<line x1="795.498" y1="958" x2="795.497" y2="1934.37" stroke="white" stroke-opacity="0.02"/>
<line x1="828.498" y1="958" x2="828.497" y2="1934.37" stroke="white" stroke-opacity="0.02"/>
<line x1="861.498" y1="958" x2="861.497" y2="1934.37" stroke="white" stroke-opacity="0.02"/>
<line x1="894.498" y1="958" x2="894.497" y2="1934.37" stroke="white" stroke-opacity="0.02"/>
<line x1="927.498" y1="958" x2="927.497" y2="1934.37" stroke="white" stroke-opacity="0.02"/>
<line x1="960.498" y1="958" x2="960.497" y2="1934.37" stroke="white" stroke-opacity="0.02"/>
<line x1="993.498" y1="958" x2="993.497" y2="1934.37" stroke="white" stroke-opacity="0.02"/>
<line x1="1026.5" y1="958" x2="1026.5" y2="1934.37" stroke="white" stroke-opacity="0.02"/>
<line x1="1059.5" y1="958" x2="1059.5" y2="1934.37" stroke="white" stroke-opacity="0.02"/>
<line x1="1092.5" y1="958" x2="1092.5" y2="1934.37" stroke="white" stroke-opacity="0.02"/>
<line x1="1125.5" y1="958" x2="1125.5" y2="1934.37" stroke="white" stroke-opacity="0.02"/>
<line x1="1158.5" y1="958" x2="1158.5" y2="1934.37" stroke="white" stroke-opacity="0.02"/>
<line x1="1191.5" y1="958" x2="1191.5" y2="1934.37" stroke="white" stroke-opacity="0.02"/>
<line x1="1224.5" y1="958" x2="1224.5" y2="1934.37" stroke="white" stroke-opacity="0.02"/>
<line x1="1257.5" y1="958" x2="1257.5" y2="1934.37" stroke="white" stroke-opacity="0.02"/>
<line x1="1290.5" y1="958" x2="1290.5" y2="1934.37" stroke="white" stroke-opacity="0.02"/>
<line x1="1323.5" y1="958" x2="1323.5" y2="1934.37" stroke="white" stroke-opacity="0.02"/>
<line x1="1356.5" y1="958" x2="1356.5" y2="1934.37" stroke="white" stroke-opacity="0.02"/>
<line x1="1389.5" y1="958" x2="1389.5" y2="1934.37" stroke="white" stroke-opacity="0.02"/>
<line x1="1422.5" y1="958" x2="1422.5" y2="1934.37" stroke="white" stroke-opacity="0.02"/>
<line x1="1455.5" y1="958" x2="1455.5" y2="1934.37" stroke="white" stroke-opacity="0.02"/>
<line x1="0.00012207" y1="957.5" x2="1486" y2="957.5" stroke="white" stroke-opacity="0.02"/>
<line x1="0.00012207" y1="924.5" x2="1486" y2="924.5" stroke="white" stroke-opacity="0.02"/>
<line x1="0.00012207" y1="891.5" x2="1486" y2="891.5" stroke="white" stroke-opacity="0.02"/>
<line x1="0.00012207" y1="858.5" x2="1486" y2="858.5" stroke="white" stroke-opacity="0.02"/>
<line x1="0.00012207" y1="825.5" x2="1486" y2="825.5" stroke="white" stroke-opacity="0.02"/>
<line x1="0.00012207" y1="792.5" x2="1486" y2="792.5" stroke="white" stroke-opacity="0.02"/>
<line x1="0.00012207" y1="759.5" x2="1486" y2="759.5" stroke="white" stroke-opacity="0.02"/>
<line x1="0.00012207" y1="726.5" x2="1486" y2="726.5" stroke="white" stroke-opacity="0.02"/>
<line x1="0.00012207" y1="693.5" x2="1486" y2="693.5" stroke="white" stroke-opacity="0.02"/>
<line x1="0.00012207" y1="660.5" x2="1486" y2="660.5" stroke="white" stroke-opacity="0.02"/>
<line x1="0.00012207" y1="627.5" x2="1486" y2="627.5" stroke="white" stroke-opacity="0.02"/>
<line x1="0.00012207" y1="594.5" x2="1486" y2="594.5" stroke="white" stroke-opacity="0.02"/>
<line x1="0.00012207" y1="561.5" x2="1486" y2="561.5" stroke="white" stroke-opacity="0.02"/>
<line x1="0.00012207" y1="528.5" x2="1486" y2="528.5" stroke="white" stroke-opacity="0.02"/>
<line x1="0.00012207" y1="495.5" x2="1486" y2="495.5" stroke="white" stroke-opacity="0.02"/>
<line x1="0.00012207" y1="462.5" x2="1486" y2="462.5" stroke="white" stroke-opacity="0.02"/>
<line x1="0.00012207" y1="429.5" x2="1486" y2="429.5" stroke="white" stroke-opacity="0.02"/>
<line x1="0.00012207" y1="396.5" x2="1486" y2="396.5" stroke="white" stroke-opacity="0.02"/>
<line x1="0.00012207" y1="363.5" x2="1486" y2="363.5" stroke="white" stroke-opacity="0.02"/>
<line x1="0.00012207" y1="330.5" x2="1486" y2="330.5" stroke="white" stroke-opacity="0.02"/>
<line x1="0.00012207" y1="297.5" x2="1486" y2="297.5" stroke="white" stroke-opacity="0.02"/>
<line x1="0.00012207" y1="264.5" x2="1486" y2="264.5" stroke="white" stroke-opacity="0.02"/>
<line x1="0.00012207" y1="231.5" x2="1486" y2="231.5" stroke="white" stroke-opacity="0.02"/>
<line x1="0.00012207" y1="198.5" x2="1486" y2="198.5" stroke="white" stroke-opacity="0.02"/>
<line x1="0.00012207" y1="165.5" x2="1486" y2="165.5" stroke="white" stroke-opacity="0.02"/>
<line x1="0.00012207" y1="132.5" x2="1486" y2="132.5" stroke="white" stroke-opacity="0.02"/>
<line x1="0.00012207" y1="99.5" x2="1486" y2="99.5" stroke="white" stroke-opacity="0.02"/>
<line x1="0.00012207" y1="66.5" x2="1486" y2="66.5" stroke="white" stroke-opacity="0.02"/>
<line x1="0.00012207" y1="33.5" x2="1486" y2="33.5" stroke="white" stroke-opacity="0.02"/>
<line y1="1915.5" x2="1486" y2="1915.5" stroke="white" stroke-opacity="0.02"/>
<line y1="1882.5" x2="1486" y2="1882.5" stroke="white" stroke-opacity="0.02"/>
<line y1="1849.5" x2="1486" y2="1849.5" stroke="white" stroke-opacity="0.02"/>
<line y1="1816.5" x2="1486" y2="1816.5" stroke="white" stroke-opacity="0.02"/>
<line y1="1783.5" x2="1486" y2="1783.5" stroke="white" stroke-opacity="0.02"/>
<line y1="1750.5" x2="1486" y2="1750.5" stroke="white" stroke-opacity="0.02"/>
<line y1="1717.5" x2="1486" y2="1717.5" stroke="white" stroke-opacity="0.02"/>
<line y1="1684.5" x2="1486" y2="1684.5" stroke="white" stroke-opacity="0.02"/>
<line y1="1651.5" x2="1486" y2="1651.5" stroke="white" stroke-opacity="0.02"/>
<line y1="1618.5" x2="1486" y2="1618.5" stroke="white" stroke-opacity="0.02"/>
<line y1="1585.5" x2="1486" y2="1585.5" stroke="white" stroke-opacity="0.02"/>
<line y1="1552.5" x2="1486" y2="1552.5" stroke="white" stroke-opacity="0.02"/>
<line y1="1519.5" x2="1486" y2="1519.5" stroke="white" stroke-opacity="0.02"/>
<line y1="1486.5" x2="1486" y2="1486.5" stroke="white" stroke-opacity="0.02"/>
<line y1="1453.5" x2="1486" y2="1453.5" stroke="white" stroke-opacity="0.02"/>
<line y1="1420.5" x2="1486" y2="1420.5" stroke="white" stroke-opacity="0.02"/>
<line y1="1387.5" x2="1486" y2="1387.5" stroke="white" stroke-opacity="0.02"/>
<line y1="1354.5" x2="1486" y2="1354.5" stroke="white" stroke-opacity="0.02"/>
<line y1="1321.5" x2="1486" y2="1321.5" stroke="white" stroke-opacity="0.02"/>
<line y1="1288.5" x2="1486" y2="1288.5" stroke="white" stroke-opacity="0.02"/>
<line y1="1255.5" x2="1486" y2="1255.5" stroke="white" stroke-opacity="0.02"/>
<line y1="1222.5" x2="1486" y2="1222.5" stroke="white" stroke-opacity="0.02"/>
<line y1="1189.5" x2="1486" y2="1189.5" stroke="white" stroke-opacity="0.02"/>
<line y1="1156.5" x2="1486" y2="1156.5" stroke="white" stroke-opacity="0.02"/>
<line y1="1123.5" x2="1486" y2="1123.5" stroke="white" stroke-opacity="0.02"/>
<line y1="1090.5" x2="1486" y2="1090.5" stroke="white" stroke-opacity="0.02"/>
<line y1="1057.5" x2="1486" y2="1057.5" stroke="white" stroke-opacity="0.02"/>
<line y1="1024.5" x2="1486" y2="1024.5" stroke="white" stroke-opacity="0.02"/>
<line y1="991.5" x2="1486" y2="991.5" stroke="white" stroke-opacity="0.02"/>
</svg>
