<svg width="1440" height="880" viewBox="0 0 1440 880" fill="none" xmlns="http://www.w3.org/2000/svg">
<g clip-path="url(#clip0_48_44)">
<rect width="1440" height="880" fill="#0B1120"/>
<ellipse cx="842.298" cy="342.856" rx="361.352" ry="349.816" transform="rotate(-46.961 842.298 342.856)" fill="url(#paint0_radial_48_44)"/>
<ellipse cx="1386.3" cy="838.856" rx="361.352" ry="349.816" transform="rotate(-46.961 1386.3 838.856)" fill="url(#paint1_radial_48_44)"/>
<ellipse cx="40.2977" cy="845.856" rx="361.352" ry="349.816" transform="rotate(-46.961 40.2977 845.856)" fill="url(#paint2_radial_48_44)"/>
<line x1="6.5" y1="-19" x2="6.49996" y2="1005" stroke="white" stroke-opacity="0.02"/>
<line x1="39.5" y1="-19" x2="39.5" y2="1005" stroke="white" stroke-opacity="0.02"/>
<line x1="72.5" y1="-19" x2="72.5" y2="1005" stroke="white" stroke-opacity="0.02"/>
<line x1="105.5" y1="-19" x2="105.5" y2="1005" stroke="white" stroke-opacity="0.02"/>
<line x1="138.5" y1="-19" x2="138.5" y2="1005" stroke="white" stroke-opacity="0.02"/>
<line x1="171.5" y1="-19" x2="171.5" y2="1005" stroke="white" stroke-opacity="0.02"/>
<line x1="204.5" y1="-19" x2="204.5" y2="1005" stroke="white" stroke-opacity="0.02"/>
<line x1="237.5" y1="-19" x2="237.5" y2="1005" stroke="white" stroke-opacity="0.02"/>
<line x1="270.5" y1="-19" x2="270.5" y2="1005" stroke="white" stroke-opacity="0.02"/>
<line x1="303.5" y1="-19" x2="303.5" y2="1005" stroke="white" stroke-opacity="0.02"/>
<line x1="336.5" y1="-19" x2="336.5" y2="1005" stroke="white" stroke-opacity="0.02"/>
<line x1="369.5" y1="-19" x2="369.5" y2="1005" stroke="white" stroke-opacity="0.02"/>
<line x1="402.5" y1="-19" x2="402.5" y2="1005" stroke="white" stroke-opacity="0.02"/>
<line x1="435.5" y1="-19" x2="435.5" y2="1005" stroke="white" stroke-opacity="0.02"/>
<line x1="468.5" y1="-19" x2="468.5" y2="1005" stroke="white" stroke-opacity="0.02"/>
<line x1="501.5" y1="-19" x2="501.5" y2="1005" stroke="white" stroke-opacity="0.02"/>
<line x1="534.5" y1="-19" x2="534.5" y2="1005" stroke="white" stroke-opacity="0.02"/>
<line x1="567.5" y1="-19" x2="567.5" y2="1005" stroke="white" stroke-opacity="0.02"/>
<line x1="600.5" y1="-19" x2="600.5" y2="1005" stroke="white" stroke-opacity="0.02"/>
<line x1="633.5" y1="-19" x2="633.5" y2="1005" stroke="white" stroke-opacity="0.02"/>
<line x1="666.5" y1="-19" x2="666.5" y2="1005" stroke="white" stroke-opacity="0.02"/>
<line x1="699.5" y1="-19" x2="699.5" y2="1005" stroke="white" stroke-opacity="0.02"/>
<line x1="732.5" y1="-19" x2="732.5" y2="1005" stroke="white" stroke-opacity="0.02"/>
<line x1="765.5" y1="-19" x2="765.5" y2="1005" stroke="white" stroke-opacity="0.02"/>
<line x1="798.5" y1="-19" x2="798.5" y2="1005" stroke="white" stroke-opacity="0.02"/>
<line x1="831.5" y1="-19" x2="831.5" y2="1005" stroke="white" stroke-opacity="0.02"/>
<line x1="864.5" y1="-19" x2="864.5" y2="1005" stroke="white" stroke-opacity="0.02"/>
<line x1="897.5" y1="-19" x2="897.5" y2="1005" stroke="white" stroke-opacity="0.02"/>
<line x1="930.5" y1="-19" x2="930.5" y2="1005" stroke="white" stroke-opacity="0.02"/>
<line x1="963.5" y1="-19" x2="963.5" y2="1005" stroke="white" stroke-opacity="0.02"/>
<line x1="996.5" y1="-19" x2="996.5" y2="1005" stroke="white" stroke-opacity="0.02"/>
<line x1="1029.5" y1="-19" x2="1029.5" y2="1005" stroke="white" stroke-opacity="0.02"/>
<line x1="1062.5" y1="-19" x2="1062.5" y2="1005" stroke="white" stroke-opacity="0.02"/>
<line x1="1095.5" y1="-19" x2="1095.5" y2="1005" stroke="white" stroke-opacity="0.02"/>
<line x1="1128.5" y1="-19" x2="1128.5" y2="1005" stroke="white" stroke-opacity="0.02"/>
<line x1="1161.5" y1="-19" x2="1161.5" y2="1005" stroke="white" stroke-opacity="0.02"/>
<line x1="1194.5" y1="-19" x2="1194.5" y2="1005" stroke="white" stroke-opacity="0.02"/>
<line x1="1227.5" y1="-19" x2="1227.5" y2="1005" stroke="white" stroke-opacity="0.02"/>
<line x1="1260.5" y1="-19" x2="1260.5" y2="1005" stroke="white" stroke-opacity="0.02"/>
<line x1="1293.5" y1="-19" x2="1293.5" y2="1005" stroke="white" stroke-opacity="0.02"/>
<line x1="1326.5" y1="-19" x2="1326.5" y2="1005" stroke="white" stroke-opacity="0.02"/>
<line x1="1359.5" y1="-19" x2="1359.5" y2="1005" stroke="white" stroke-opacity="0.02"/>
<line x1="1392.5" y1="-19" x2="1392.5" y2="1005" stroke="white" stroke-opacity="0.02"/>
<line x1="1425.5" y1="-19" x2="1425.5" y2="1005" stroke="white" stroke-opacity="0.02"/>
<line x1="22" y1="871.5" x2="1446" y2="871.5" stroke="white" stroke-opacity="0.02"/>
<line x1="22" y1="838.5" x2="1446" y2="838.5" stroke="white" stroke-opacity="0.02"/>
<line x1="22" y1="805.5" x2="1446" y2="805.5" stroke="white" stroke-opacity="0.02"/>
<line x1="22" y1="772.5" x2="1446" y2="772.5" stroke="white" stroke-opacity="0.02"/>
<line x1="22" y1="739.5" x2="1446" y2="739.5" stroke="white" stroke-opacity="0.02"/>
<line x1="22" y1="706.5" x2="1446" y2="706.5" stroke="white" stroke-opacity="0.02"/>
<line x1="22" y1="673.5" x2="1446" y2="673.5" stroke="white" stroke-opacity="0.02"/>
<line x1="22" y1="640.5" x2="1446" y2="640.5" stroke="white" stroke-opacity="0.02"/>
<line x1="22" y1="607.5" x2="1446" y2="607.5" stroke="white" stroke-opacity="0.02"/>
<line x1="22" y1="574.5" x2="1446" y2="574.5" stroke="white" stroke-opacity="0.02"/>
<line x1="22" y1="541.5" x2="1446" y2="541.5" stroke="white" stroke-opacity="0.02"/>
<line x1="22" y1="508.5" x2="1446" y2="508.5" stroke="white" stroke-opacity="0.02"/>
<line x1="22" y1="475.5" x2="1446" y2="475.5" stroke="white" stroke-opacity="0.02"/>
<line x1="22" y1="442.5" x2="1446" y2="442.5" stroke="white" stroke-opacity="0.02"/>
<line x1="22" y1="409.5" x2="1446" y2="409.5" stroke="white" stroke-opacity="0.02"/>
<line x1="22" y1="376.5" x2="1446" y2="376.5" stroke="white" stroke-opacity="0.02"/>
<line x1="22" y1="343.5" x2="1446" y2="343.5" stroke="white" stroke-opacity="0.02"/>
<line x1="22" y1="310.5" x2="1446" y2="310.5" stroke="white" stroke-opacity="0.02"/>
<line x1="22" y1="277.5" x2="1446" y2="277.5" stroke="white" stroke-opacity="0.02"/>
<line x1="22" y1="244.5" x2="1446" y2="244.5" stroke="white" stroke-opacity="0.02"/>
<line x1="22" y1="211.5" x2="1446" y2="211.5" stroke="white" stroke-opacity="0.02"/>
<line x1="22" y1="178.5" x2="1446" y2="178.5" stroke="white" stroke-opacity="0.02"/>
<line x1="22" y1="145.5" x2="1446" y2="145.5" stroke="white" stroke-opacity="0.02"/>
<line x1="22" y1="112.5" x2="1446" y2="112.5" stroke="white" stroke-opacity="0.02"/>
<line x1="22" y1="79.5" x2="1446" y2="79.5" stroke="white" stroke-opacity="0.02"/>
<line x1="22" y1="46.5" x2="1446" y2="46.5" stroke="white" stroke-opacity="0.02"/>
<line x1="22" y1="13.5" x2="1446" y2="13.5" stroke="white" stroke-opacity="0.02"/>
</g>
<defs>
<radialGradient id="paint0_radial_48_44" cx="0" cy="0" r="1" gradientUnits="userSpaceOnUse" gradientTransform="translate(842.298 342.856) rotate(90) scale(349.816 361.352)">
<stop stop-color="#F475FF" stop-opacity="0.29"/>
<stop offset="1" stop-color="#0B1120" stop-opacity="0"/>
</radialGradient>
<radialGradient id="paint1_radial_48_44" cx="0" cy="0" r="1" gradientUnits="userSpaceOnUse" gradientTransform="translate(1386.3 838.856) rotate(90) scale(349.816 361.352)">
<stop stop-color="#33B4FC" stop-opacity="0.29"/>
<stop offset="1" stop-color="#0B1120" stop-opacity="0"/>
</radialGradient>
<radialGradient id="paint2_radial_48_44" cx="0" cy="0" r="1" gradientUnits="userSpaceOnUse" gradientTransform="translate(40.2977 845.856) rotate(90) scale(349.816 361.352)">
<stop stop-color="#50F97F" stop-opacity="0.17"/>
<stop offset="1" stop-color="#0B1120" stop-opacity="0"/>
</radialGradient>
<clipPath id="clip0_48_44">
<rect width="1440" height="880" fill="white"/>
</clipPath>
</defs>
</svg>
